<?xml version="1.0" encoding="UTF-8" standalone="no"?>
<svg
   width="25"
   height="26"
   viewBox="0 0 25 26"
   fill="none"
   version="1.1"
   id="svg6"
   sodipodi:docname="javascript.svg"
   inkscape:version="1.1 (c68e22c387, 2021-05-23)"
   xmlns:inkscape="http://www.inkscape.org/namespaces/inkscape"
   xmlns:sodipodi="http://sodipodi.sourceforge.net/DTD/sodipodi-0.dtd"
   xmlns="http://www.w3.org/2000/svg"
   xmlns:svg="http://www.w3.org/2000/svg">
  <defs
     id="defs10" />
  <sodipodi:namedview
     id="namedview8"
     pagecolor="#ffffff"
     bordercolor="#666666"
     borderopacity="1.0"
     inkscape:pageshadow="2"
     inkscape:pageopacity="0.0"
     inkscape:pagecheckerboard="0"
     showgrid="false"
     inkscape:zoom="25.076923"
     inkscape:cx="12.501534"
     inkscape:cy="19.400307"
     inkscape:window-width="1600"
     inkscape:window-height="837"
     inkscape:window-x="-8"
     inkscape:window-y="-8"
     inkscape:window-maximized="1"
     inkscape:current-layer="svg6" />
  <rect
     width="25"
     height="26"
     fill="#E5E5E5"
     id="rect2"
     style="fill:#e514e5;fill-opacity:0.02845529" />
  <path
     d="M21.0938 2.0625H3.90625C2.6123 2.0625 1.5625 3.1123 1.5625 4.40625V21.5938C1.5625 22.8877 2.6123 23.9375 3.90625 23.9375H21.0938C22.3877 23.9375 23.4375 22.8877 23.4375 21.5938V4.40625C23.4375 3.1123 22.3877 2.0625 21.0938 2.0625ZM13.4668 19.123C13.4668 21.252 12.2168 22.2236 10.3955 22.2236C8.75 22.2236 7.79785 21.374 7.30957 20.3437L8.98438 19.333C9.30664 19.9043 9.59961 20.3877 10.3076 20.3877C10.9814 20.3877 11.4111 20.124 11.4111 19.0937V12.1064H13.4668V19.123V19.123ZM18.3301 22.2236C16.4209 22.2236 15.1855 21.3154 14.585 20.124L16.2598 19.1572C16.6992 19.875 17.2754 20.4072 18.2861 20.4072C19.1357 20.4072 19.6826 19.9824 19.6826 19.3916C19.6826 18.6885 19.126 18.4395 18.1836 18.0244L17.6709 17.8047C16.1865 17.1748 15.2051 16.3789 15.2051 14.7041C15.2051 13.1611 16.3818 11.9893 18.2129 11.9893C19.5215 11.9893 20.459 12.4434 21.1328 13.6348L19.5312 14.6602C19.1797 14.0303 18.7988 13.7812 18.208 13.7812C17.6074 13.7812 17.2266 14.1621 17.2266 14.6602C17.2266 15.2754 17.6074 15.5244 18.4912 15.9102L19.0039 16.1299C20.752 16.877 21.7334 17.6436 21.7334 19.3623C21.7334 21.208 20.2783 22.2236 18.3301 22.2236V22.2236Z"
     fill="black"
     id="path4"
     style="fill:#263547;fill-opacity:1" />
</svg>
